<?xml version="1.0" encoding="UTF-8"?>
<svg version="1.1" xmlns="http://www.w3.org/2000/svg" width="512" height="512">
<path d="M0 0 C1.01790619 0.00215515 2.03581238 0.0043103 3.08456421 0.00653076 C17.69363523 0.05620146 32.02575853 0.30709809 46.375 3.3125 C47.34985352 3.51117676 48.32470703 3.70985352 49.32910156 3.91455078 C97.7109774 14.03517194 141.69928269 35.9516877 177.375 70.3125 C178.3640332 71.26068604 178.3640332 71.26068604 179.37304688 72.22802734 C188.86130305 81.37247479 197.6012044 90.66984009 205.375 101.3125 C206.23306152 102.46355017 207.09113451 103.61459177 207.94921875 104.765625 C213.98736829 112.95680614 219.34595521 121.47054105 224.375 130.3125 C224.73948242 130.94430176 225.10396484 131.57610352 225.47949219 132.22705078 C247.08534998 169.97532572 256.85198095 212.74189997 256.6875 255.9375 C256.68534485 256.95540619 256.6831897 257.97331238 256.68096924 259.02206421 C256.63129854 273.63113523 256.38040191 287.96325853 253.375 302.3125 C253.07698486 303.77478027 253.07698486 303.77478027 252.77294922 305.26660156 C242.65232806 353.6484774 220.7358123 397.63678269 186.375 433.3125 C185.74287598 433.97185547 185.11075195 434.63121094 184.45947266 435.31054688 C175.31502521 444.79880305 166.01765991 453.5387044 155.375 461.3125 C154.22394983 462.17056152 153.07290823 463.02863451 151.921875 463.88671875 C143.73224019 469.92427396 135.22961724 475.30707302 126.375 480.3125 C125.66778809 480.7146875 124.96057617 481.116875 124.23193359 481.53125 C101.09654164 494.5566741 75.92537591 503.30551461 49.9375 508.625 C49.21860596 508.77235596 48.49971191 508.91971191 47.7590332 509.0715332 C33.08339502 511.86090125 18.55831162 512.66142619 3.64770508 512.62817383 C0.70811513 512.6250221 -2.2304558 512.64854926 -5.16992188 512.67382812 C-18.54306192 512.71848737 -31.43916711 511.51301542 -44.625 509.3125 C-46.33055054 509.03031616 -46.33055054 509.03031616 -48.07055664 508.74243164 C-91.33802759 500.97044532 -132.38793216 480.98345309 -165.625 452.3125 C-166.37007813 451.67828125 -167.11515625 451.0440625 -167.8828125 450.390625 C-181.38779833 438.57948485 -194.05918743 425.82889772 -204.625 411.3125 C-205.48149066 410.16255169 -206.33826433 409.01281411 -207.1953125 407.86328125 C-213.23534209 399.67315742 -218.61867614 391.16870382 -223.625 382.3125 C-224.0271875 381.60528809 -224.429375 380.89807617 -224.84375 380.16943359 C-237.8691741 357.03404164 -246.61801461 331.86287591 -251.9375 305.875 C-252.08485596 305.15610596 -252.23221191 304.43721191 -252.3840332 303.6965332 C-255.35789088 288.05024391 -255.99800362 272.57681954 -255.9375 256.6875 C-255.93534485 255.66959381 -255.9331897 254.65168762 -255.93096924 253.60293579 C-255.88129854 238.99386477 -255.63040191 224.66174147 -252.625 210.3125 C-252.42632324 209.33764648 -252.22764648 208.36279297 -252.02294922 207.35839844 C-241.90232806 158.9765226 -219.9858123 114.98821731 -185.625 79.3125 C-184.99287598 78.65314453 -184.36075195 77.99378906 -183.70947266 77.31445312 C-174.56502521 67.82619695 -165.26765991 59.0862956 -154.625 51.3125 C-153.47394983 50.45443848 -152.32290823 49.59636549 -151.171875 48.73828125 C-142.98224019 42.70072604 -134.47961724 37.31792698 -125.625 32.3125 C-124.91778809 31.9103125 -124.21057617 31.508125 -123.48193359 31.09375 C-100.34654164 18.0683259 -75.17537591 9.31948539 -49.1875 4 C-48.46860596 3.85264404 -47.74971191 3.70528809 -47.0090332 3.5534668 C-31.36274391 0.57960912 -15.88931954 -0.06050362 0 0 Z " fill="#025E90" transform="translate(255.625,-0.3125)"/>
<path d="M0 0 C1.01790619 0.00215515 2.03581238 0.0043103 3.08456421 0.00653076 C17.69363523 0.05620146 32.02575853 0.30709809 46.375 3.3125 C47.34985352 3.51117676 48.32470703 3.70985352 49.32910156 3.91455078 C97.7109774 14.03517194 141.69928269 35.9516877 177.375 70.3125 C178.3640332 71.26068604 178.3640332 71.26068604 179.37304688 72.22802734 C188.86130305 81.37247479 197.6012044 90.66984009 205.375 101.3125 C206.23306152 102.46355017 207.09113451 103.61459177 207.94921875 104.765625 C213.98736829 112.95680614 219.34595521 121.47054105 224.375 130.3125 C224.73948242 130.94430176 225.10396484 131.57610352 225.47949219 132.22705078 C240.27304923 158.07334042 249.49704081 187.01294589 254.375 216.3125 C254.49214355 216.9813623 254.60928711 217.65022461 254.72998047 218.33935547 C257.24341426 233.16226589 256.56636647 248.33439371 256.375 263.3125 C249.88374884 258.43250347 246.3205593 252.88103331 242.15307617 245.98291016 C231.80635465 229.38595894 220.08889881 213.9444527 207.5625 198.9375 C206.99306498 198.252185 206.42362996 197.56686999 205.83693933 196.86078787 C175.74844697 160.85680901 142.6371974 139.49997071 95.43858397 135.17310329 C62.26301733 132.31334625 28.87937885 132.76374803 -4.3671369 133.80277717 C-6.69325974 133.87517928 -9.01944609 133.94512886 -11.34565783 134.01461124 C-44.17459555 135.0045694 -76.95821983 136.6212283 -109.70727539 139.13110352 C-110.87551617 139.21743837 -112.04375695 139.30377322 -113.24739897 139.39272428 C-116.48193175 139.63634428 -119.71413032 139.89964168 -122.94642639 140.17115784 C-123.89354107 140.24156357 -124.84065574 140.31196931 -125.81647086 140.38450855 C-127.10801955 140.50074631 -127.10801955 140.50074631 -128.42566013 140.61933231 C-129.16968541 140.68107358 -129.91371068 140.74281485 -130.68028218 140.80642706 C-133.12819018 141.44344493 -134.09689776 142.3165145 -135.625 144.3125 C-136.09184865 147.4982431 -136.09184865 147.4982431 -136.03286743 151.22514343 C-136.04036967 151.93260029 -136.0478719 152.64005715 -136.05560148 153.3689521 C-136.07697745 155.74569577 -136.07681781 158.12194652 -136.07666016 160.4987793 C-136.0872711 162.20051341 -136.09910073 163.90224029 -136.11206055 165.60395813 C-136.14288594 170.23229003 -136.15398759 174.86046732 -136.15970278 179.48889136 C-136.16405396 182.38104308 -136.17242665 185.27315459 -136.18220139 188.16529274 C-136.21596816 198.25694457 -136.23308472 208.34847928 -136.23583984 218.44018555 C-136.23887238 227.8430925 -136.2792847 237.24534089 -136.33698809 246.64805669 C-136.3847901 254.72208624 -136.40557193 262.79589867 -136.40563047 270.87006885 C-136.40616834 275.69173051 -136.41773733 280.51274807 -136.45680618 285.33426476 C-136.49270798 289.87277536 -136.49493 294.41008675 -136.47163391 298.94866753 C-136.46877704 300.61110552 -136.47780313 302.27361453 -136.49981308 303.93590927 C-136.52809258 306.21365606 -136.51275549 308.4872505 -136.48696899 310.76493835 C-136.48952509 312.03680339 -136.49208118 313.30866842 -136.49471474 314.61907482 C-135.25960152 319.86424094 -132.37166831 322.57556119 -128.625 326.3125 C-127.71844748 327.25120214 -127.71844748 327.25120214 -126.79358077 328.20886797 C-124.86569996 330.19173816 -122.911442 332.14519349 -120.94972229 334.09457397 C-119.83819169 335.20526951 -119.83819169 335.20526951 -118.70420593 336.33840334 C-116.24080246 338.79879043 -113.77384289 341.25557983 -111.30688477 343.71240234 C-109.53224527 345.48348283 -107.75784243 347.25480048 -105.98365784 349.02633667 C-102.17369229 352.82976879 -98.36226812 356.63173014 -94.54962349 360.43247604 C-89.03629383 365.92877932 -83.52672014 371.42883591 -78.01823091 376.92998989 C-69.07792457 385.85837453 -60.13610969 394.78524636 -51.19262695 403.71044922 C-50.39109873 404.51034226 -50.39109873 404.51034226 -49.57337802 405.32639475 C-41.97358017 412.91054915 -34.37230492 420.49322113 -26.77045565 428.07531925 C-26.23398117 428.61040042 -25.69750668 429.14548159 -25.14477539 429.69677734 C-24.60895525 430.23120395 -24.07313511 430.76563056 -23.521078 431.31625192 C-14.59918775 440.21513866 -5.68113405 449.1178587 3.23376042 458.02375376 C8.73150356 463.51563623 14.23249111 469.00422922 19.7376538 474.48867436 C23.94609939 478.6818412 28.14941251 482.88012624 32.35079384 487.08037186 C34.07931592 488.8067367 35.80957163 490.53136766 37.54163361 492.25418091 C39.89522235 494.59568124 42.24266979 496.94316616 44.58860779 499.29232788 C45.28420364 499.98141593 45.9797995 500.67050399 46.69647402 501.38047349 C47.31916833 502.0065332 47.94186264 502.63259291 48.58342648 503.27762413 C49.12642924 503.81932538 49.66943201 504.36102664 50.22888941 504.91914308 C51.375 506.3125 51.375 506.3125 51.375 508.3125 C48.39624032 508.79431362 45.41703251 509.27300857 42.4375 509.75 C41.60669922 509.88470703 40.77589844 510.01941406 39.91992188 510.15820312 C38.67758789 510.35639648 38.67758789 510.35639648 37.41015625 510.55859375 C36.6612915 510.67904053 35.91242676 510.7994873 35.14086914 510.92358398 C27.80437731 511.95518708 20.61756835 512.48026751 13.20703125 512.515625 C12.25092453 512.52132507 11.29481781 512.52702515 10.30973816 512.53289795 C8.29024339 512.5422971 6.27073363 512.54886156 4.2512207 512.55273438 C1.24075499 512.56233025 -1.76899402 512.59335684 -4.77929688 512.625 C-18.29552518 512.69886788 -31.29906149 511.55030336 -44.625 509.3125 C-45.76138916 509.12429688 -46.89777832 508.93609375 -48.06860352 508.7421875 C-91.33502506 500.97962672 -132.39111203 480.98071007 -165.625 452.3125 C-166.37007813 451.67828125 -167.11515625 451.0440625 -167.8828125 450.390625 C-181.38779833 438.57948485 -194.05918743 425.82889772 -204.625 411.3125 C-205.48149066 410.16255169 -206.33826433 409.01281411 -207.1953125 407.86328125 C-213.23534209 399.67315742 -218.61867614 391.16870382 -223.625 382.3125 C-224.0271875 381.60528809 -224.429375 380.89807617 -224.84375 380.16943359 C-237.8691741 357.03404164 -246.61801461 331.86287591 -251.9375 305.875 C-252.08485596 305.15610596 -252.23221191 304.43721191 -252.3840332 303.6965332 C-255.35789088 288.05024391 -255.99800362 272.57681954 -255.9375 256.6875 C-255.93534485 255.66959381 -255.9331897 254.65168762 -255.93096924 253.60293579 C-255.88129854 238.99386477 -255.63040191 224.66174147 -252.625 210.3125 C-252.42632324 209.33764648 -252.22764648 208.36279297 -252.02294922 207.35839844 C-241.90232806 158.9765226 -219.9858123 114.98821731 -185.625 79.3125 C-184.99287598 78.65314453 -184.36075195 77.99378906 -183.70947266 77.31445312 C-174.56502521 67.82619695 -165.26765991 59.0862956 -154.625 51.3125 C-153.47394983 50.45443848 -152.32290823 49.59636549 -151.171875 48.73828125 C-142.98224019 42.70072604 -134.47961724 37.31792698 -125.625 32.3125 C-124.91778809 31.9103125 -124.21057617 31.508125 -123.48193359 31.09375 C-100.34654164 18.0683259 -75.17537591 9.31948539 -49.1875 4 C-48.46860596 3.85264404 -47.74971191 3.70528809 -47.0090332 3.5534668 C-31.36274391 0.57960912 -15.88931954 -0.06050362 0 0 Z " fill="#0474A4" transform="translate(255.625,-0.3125)"/>
<path d="M0 0 C81.18 0 162.36 0 246 0 C246 50.82 246 101.64 246 154 C164.82 154 83.64 154 0 154 C0 103.18 0 52.36 0 0 Z " fill="#FE8E31" transform="translate(133,154)"/>
<path d="M0 0 C1.08682036 -0.00623996 2.17364073 -0.01247993 3.29339504 -0.01890898 C6.94784961 -0.03490812 10.60164358 -0.02220711 14.25610352 -0.00964355 C16.87086375 -0.01506157 19.48562094 -0.02218241 22.10037231 -0.03088379 C28.47269818 -0.04868485 34.84483576 -0.04482206 41.21716905 -0.03323323 C46.39535459 -0.02420537 51.57348731 -0.02297208 56.75167847 -0.02732849 C57.48822771 -0.02794142 58.22477694 -0.02855436 58.98364586 -0.02918586 C60.47985881 -0.03046474 61.97607175 -0.0317616 63.47228467 -0.03307623 C77.50742518 -0.04448667 91.54246124 -0.03136108 105.57758462 -0.00987476 C117.62444792 0.00799667 129.67115706 0.00489269 141.71801758 -0.0135498 C155.70239457 -0.03494837 169.68667998 -0.04338799 183.67107105 -0.03110075 C185.16182771 -0.02982653 186.65258438 -0.02856905 188.14334106 -0.02732849 C188.8768516 -0.02671139 189.61036213 -0.02609429 190.36610025 -0.02545848 C195.53900087 -0.02200253 200.71184347 -0.02783919 205.88473511 -0.0372467 C212.84508808 -0.04962648 219.80514447 -0.04083227 226.7654686 -0.01766968 C229.32452789 -0.01236708 231.88361162 -0.01392266 234.44266129 -0.02272034 C237.92711583 -0.03359768 241.41062572 -0.02000559 244.89501953 0 C246.42593813 -0.01338433 246.42593813 -0.01338433 247.98778439 -0.02703905 C254.68751876 0.04793822 254.68751876 0.04793822 258.07529449 2.09844208 C259.94996373 5.39020069 259.95096281 7.78113865 259.95544434 11.56774902 C259.96480428 12.63444934 259.96480428 12.63444934 259.97435331 13.72269917 C259.99030982 16.10587521 259.97766954 18.48803217 259.96508789 20.87121582 C259.97050786 22.57958574 259.97762982 24.287951 259.98632812 25.99630737 C260.00457938 30.6368033 259.99748656 35.27694392 259.98481178 39.91744614 C259.97469344 44.77094235 259.98407422 49.62440788 259.99035645 54.47790527 C259.99763625 62.6289212 259.98803641 70.77979221 259.96899414 78.93078613 C259.94722476 88.35805404 259.95427589 97.78497593 259.97629976 107.21223545 C259.99444427 115.30236304 259.99701673 123.39238638 259.98654509 131.48252773 C259.98030493 136.3161378 259.97948885 141.14958516 259.99269104 145.98318481 C260.00423513 150.52723026 259.99625034 155.07082907 259.97311401 159.6148262 C259.96781919 161.28375125 259.96935392 162.9527138 259.97816467 164.62162399 C259.98907383 166.89763229 259.97541475 169.17220374 259.95544434 171.44812012 C259.95318218 173.3595002 259.95318218 173.3595002 259.95087433 175.30949402 C259.44750977 178.50793457 259.44750977 178.50793457 258.07808781 180.91742706 C253.86005313 183.46774707 249.68691468 183.05796526 244.85032654 183.01586914 C243.75871706 183.0221091 242.66710757 183.02834907 241.54241902 183.03477812 C237.8718119 183.0507775 234.20186245 183.03807619 230.53125 183.0255127 C227.90501517 183.03093067 225.27878338 183.03805149 222.65255737 183.04675293 C216.2524933 183.06455364 209.85261669 183.06069153 203.45254522 183.04910237 C198.25242132 183.04007517 193.05235002 183.03884093 187.85222054 183.04319763 C186.74280055 183.04411703 186.74280055 183.04411703 185.61096804 183.045055 C184.10855236 183.04633388 182.60613669 183.04763073 181.10372103 183.04894537 C167.01090693 183.0603555 152.91819686 183.04723029 138.82539982 183.0257439 C126.726484 183.0078688 114.62772166 183.01097954 102.52880859 183.02941895 C88.48547766 183.05081167 74.44223789 183.05926073 60.39889294 183.04696989 C58.90225638 183.04569566 57.40561981 183.04443818 55.90898323 183.04319763 C55.17256788 183.04258053 54.43615252 183.04196343 53.67742155 183.04132763 C48.48150891 183.03787019 43.28565399 183.04371143 38.08975029 183.05311584 C31.10067365 183.06548757 24.11189256 183.05671475 17.1228447 183.03353882 C14.55207745 183.02823254 11.98128587 183.02979801 9.41052818 183.03858948 C5.912587 183.04945232 2.4155897 183.03589267 -1.08229065 183.01586914 C-2.62341494 183.02925347 -2.62341494 183.02925347 -4.19567305 183.04290819 C-5.5960325 183.02726171 -5.5960325 183.02726171 -7.02468204 183.01129913 C-7.83245722 183.01064972 -8.64023239 183.01000031 -9.4724856 183.00933123 C-11.55249023 182.50793457 -11.55249023 182.50793457 -13.31170845 180.67637682 C-15.09849495 177.55371384 -14.93333611 175.03200854 -14.94017029 171.44812012 C-14.94555583 170.73698657 -14.95094136 170.02585302 -14.9564901 169.29316998 C-14.97079836 166.91015509 -14.96365917 164.52769345 -14.95654297 162.14465332 C-14.96224501 160.43628492 -14.96920862 158.72792033 -14.9773407 157.01956177 C-14.99530444 152.37912738 -14.99409784 147.73888174 -14.98839831 143.098423 C-14.98531148 139.22644401 -14.99139318 135.35450154 -14.99743706 131.48252773 C-15.01149088 122.35001535 -15.00991352 113.2175965 -14.99853516 104.08508301 C-14.98704926 94.65782597 -15.00113557 85.23085326 -15.02793163 75.80363369 C-15.05006764 67.71351585 -15.05673087 59.62348739 -15.05085522 51.53334141 C-15.04747986 46.6997198 -15.04993918 41.86628052 -15.06710625 37.03268433 C-15.08254022 32.48865747 -15.07865953 27.9450529 -15.0598011 23.40104294 C-15.05610553 21.73211118 -15.05925179 20.06314837 -15.06968689 18.39424515 C-15.08283297 16.11825554 -15.07140809 13.84367722 -15.05369568 11.56774902 C-15.05348639 10.29349564 -15.05327711 9.01924225 -15.05306149 7.70637512 C-14.55249023 4.50793457 -14.55249023 4.50793457 -13.18069553 2.09844208 C-8.97456946 -0.44697365 -4.82424331 -0.04217681 0 0 Z M-0.55249023 14.50793457 C-0.55249023 65.32793457 -0.55249023 116.14793457 -0.55249023 168.50793457 C80.62750977 168.50793457 161.80750977 168.50793457 245.44750977 168.50793457 C245.44750977 117.68793457 245.44750977 66.86793457 245.44750977 14.50793457 C164.26750977 14.50793457 83.08750977 14.50793457 -0.55249023 14.50793457 Z " fill="#364A5D" transform="translate(133.552490234375,139.4920654296875)"/>
<path d="M0 0 C17.82 0 35.64 0 54 0 C57.31056049 14.64003415 60.55483096 29.19314301 63 44 C69.27 44 75.54 44 82 44 C82 45.98 82 47.96 82 50 C45.7 50 9.4 50 -28 50 C-28 48.02 -28 46.04 -28 44 C-21.73 44 -15.46 44 -9 44 C-8.68546875 42.41574219 -8.3709375 40.83148438 -8.046875 39.19921875 C-7.61463755 37.02863504 -7.18234273 34.85806275 -6.75 32.6875 C-6.54503906 31.65431641 -6.34007812 30.62113281 -6.12890625 29.55664062 C-4.16090836 19.68683301 -2.07375126 9.85031848 0 0 Z " fill="#B5D3EB" transform="translate(229,322)"/>
<path d="M0 0 C3.58305992 -0.11627503 7.16563417 -0.1872736 10.75 -0.25 C11.76578125 -0.28351563 12.7815625 -0.31703125 13.828125 -0.3515625 C21.23185128 -0.44897995 21.23185128 -0.44897995 24.51953125 1.47265625 C26.62069958 5.05961116 27.78698695 8.7060879 28.9375 12.6875 C29.18838379 13.52095947 29.43926758 14.35441895 29.69775391 15.21313477 C30.21700507 16.94446278 30.73062549 18.67748893 31.23876953 20.41210938 C31.97371293 22.91063409 32.73114946 25.40114337 33.49609375 27.890625 C33.95649631 29.40601714 34.41616526 30.92163241 34.875 32.4375 C35.19778931 33.49167114 35.19778931 33.49167114 35.52709961 34.56713867 C36.5155101 37.90287074 37 40.48035872 37 44 C48.88 43.67 60.76 43.34 73 43 C74.88864563 36.5993563 74.88864563 36.5993563 76.76904297 30.19628906 C77.00768066 29.39416992 77.24631836 28.59205078 77.4921875 27.765625 C77.85352783 26.54020996 77.85352783 26.54020996 78.22216797 25.29003906 C79 23 79 23 81 19 C65.82 19 50.64 19 35 19 C34.34 16.69 33.68 14.38 33 12 C40.18987257 11.9239778 47.3796416 11.87141185 54.56982422 11.83520508 C57.01615268 11.8201123 59.46245407 11.79963598 61.90869141 11.77368164 C65.42357057 11.73732082 68.93809218 11.72027839 72.453125 11.70703125 C73.5480426 11.69154739 74.64296021 11.67606354 75.77105713 11.66011047 C76.79181335 11.65988388 77.81256958 11.65965729 78.86425781 11.65942383 C80.20994843 11.64943108 80.20994843 11.64943108 81.58282471 11.63923645 C84.49721454 12.0742093 85.87585262 12.98806999 88 15 C89.00580347 22.13444296 85.72278941 30.21503847 83.625 36.9375 C83.32078125 37.96423828 83.0165625 38.99097656 82.703125 40.04882812 C82.40148437 41.03173828 82.09984375 42.01464844 81.7890625 43.02734375 C81.51787598 43.91156006 81.24668945 44.79577637 80.96728516 45.70678711 C79.92110436 48.1870436 79.07898003 49.31573027 77 51 C75.02697754 51.38095093 75.02697754 51.38095093 72.75976562 51.38818359 C71.90878296 51.39764008 71.05780029 51.40709656 70.18103027 51.4168396 C69.26535278 51.41076691 68.34967529 51.40469421 67.40625 51.3984375 C66.46317993 51.40130768 65.52010986 51.40417786 64.54846191 51.40713501 C62.55460001 51.40917646 60.56071812 51.40364093 58.56689453 51.39111328 C55.51158956 51.37506089 52.45760748 51.39095933 49.40234375 51.41015625 C47.46614291 51.40817383 45.52994289 51.40433019 43.59375 51.3984375 C42.22023376 51.40754654 42.22023376 51.40754654 40.81896973 51.4168396 C39.54249573 51.40265488 39.54249573 51.40265488 38.24023438 51.38818359 C37.11796448 51.38460342 37.11796448 51.38460342 35.97302246 51.38095093 C33.42133283 50.88827102 32.5847596 50.03047781 31 48 C29.95179383 45.37508034 29.03722764 42.81320828 28.1875 40.125 C27.93468262 39.34576172 27.68186523 38.56652344 27.42138672 37.76367188 C19 11.46694489 19 11.46694489 19 7 C12.73 7 6.46 7 0 7 C0 4.69 0 2.38 0 0 Z " fill="#FFFCF9" transform="translate(169,198)"/>
<path d="M0 0 C25.74 0 51.48 0 78 0 C78 5.61 78 11.22 78 17 C52.26 17 26.52 17 0 17 C0 11.39 0 5.78 0 0 Z " fill="#FCFAF9" transform="translate(265,225)"/>
<path d="M0 0 C25.74 0 51.48 0 78 0 C78 5.61 78 11.22 78 17 C52.26 17 26.52 17 0 17 C0 11.39 0 5.78 0 0 Z " fill="#FFFBF9" transform="translate(265,198)"/>
<path d="M0 0 C3.35296312 1.45754574 5.55118299 3.30303426 8.12597656 5.88305664 C8.92650452 6.68050797 9.72703247 7.47795929 10.55181885 8.29957581 C11.40612488 9.16106735 12.26043091 10.0225589 13.140625 10.91015625 C14.02280701 11.79279648 14.90498901 12.67543671 15.81390381 13.58482361 C17.67555417 15.44949352 19.53518862 17.31593086 21.39160156 19.18579102 C23.77629496 21.58753544 26.16758046 23.98258229 28.56119156 26.37543583 C30.84047095 28.65505156 33.11549269 30.93890265 35.390625 33.22265625 C36.68422943 34.51792992 36.68422943 34.51792992 38.00396729 35.83937073 C38.7918866 36.63366989 39.57980591 37.42796906 40.39160156 38.24633789 C41.43939789 39.29985191 41.43939789 39.29985191 42.50836182 40.37464905 C44 42 44 42 44 43 C26.84 43 9.68 43 -8 43 C-8 37.8341379 -7.79039415 34.12438435 -6.7578125 29.21875 C-6.49613281 27.96449219 -6.23445312 26.71023438 -5.96484375 25.41796875 C-5.82675293 24.7739209 -5.68866211 24.12987305 -5.54638672 23.46630859 C-5.1263649 21.50636901 -4.71660326 19.54450297 -4.30859375 17.58203125 C-3.05840992 11.64823192 -1.71234845 5.81552305 0 0 Z " fill="#DFEDF9" transform="translate(229,323)"/>
<path d="M0 0 C0.82290527 0.00202423 1.64581055 0.00404846 2.49365234 0.00613403 C3.33331543 0.00517731 4.17297852 0.00422058 5.03808594 0.00323486 C6.81689529 0.00255306 8.59570712 0.00440737 10.37451172 0.00857544 C13.10699011 0.01392371 15.83930411 0.00863048 18.57177734 0.00222778 C20.29573604 0.00288856 22.01969464 0.00416973 23.74365234 0.00613403 C24.56655762 0.0041098 25.38946289 0.00208557 26.23730469 0 C32.0037018 0.02399599 32.0037018 0.02399599 33.11865234 1.13894653 C33.19178801 3.66944055 33.21112761 6.1719949 33.18115234 8.70144653 C33.17664063 9.4123645 33.17212891 10.12328247 33.16748047 10.85574341 C33.15566098 12.61684667 33.13772498 14.37790689 33.11865234 16.13894653 C32.45865234 16.13894653 31.79865234 16.13894653 31.11865234 16.13894653 C31.55177734 16.62105591 31.98490234 17.10316528 32.43115234 17.59988403 C32.98802734 18.23152466 33.54490234 18.86316528 34.11865234 19.51394653 C34.67552734 20.14043091 35.23240234 20.76691528 35.80615234 21.41238403 C37.11865234 23.13894653 37.11865234 23.13894653 37.11865234 25.13894653 C36.12865234 25.13894653 35.13865234 25.13894653 34.11865234 25.13894653 C34.61365234 27.61394653 34.61365234 27.61394653 35.11865234 30.13894653 C33.79865234 30.13894653 32.47865234 30.13894653 31.11865234 30.13894653 C30.45865234 29.14894653 29.79865234 28.15894653 29.11865234 27.13894653 C27.13865234 28.12894653 27.13865234 28.12894653 25.11865234 29.13894653 C25.11865234 25.17894653 25.11865234 21.21894653 25.11865234 17.13894653 C23.71788452 17.14680176 23.71788452 17.14680176 22.28881836 17.15481567 C18.83552438 17.17182273 15.38227467 17.18437955 11.92895508 17.19387817 C10.43220316 17.19891774 8.93545619 17.20574941 7.4387207 17.21438599 C5.29165427 17.22646812 3.14465272 17.23217845 0.99755859 17.23660278 C-0.94268188 17.24445801 -0.94268188 17.24445801 -2.92211914 17.25247192 C-5.88134766 17.13894653 -5.88134766 17.13894653 -6.88134766 16.13894653 C-6.98109798 13.62758549 -7.02016949 11.14991239 -7.00634766 8.63894653 C-7.01021484 7.93640747 -7.01408203 7.23386841 -7.01806641 6.51004028 C-7.0054267 -0.04996893 -6.48078983 0.02696883 0 0 Z " fill="#0D78A6" transform="translate(290.88134765625,247.86105346679688)"/>
<path d="M0 0 C36.3 0 72.6 0 110 0 C110 1.65 110 3.3 110 5 C73.7 5 37.4 5 0 5 C0 3.35 0 1.7 0 0 Z " fill="#EDF3F7" transform="translate(201,367)"/>
<path d="M0 0 C0.82290527 0.00202423 1.64581055 0.00404846 2.49365234 0.00613403 C3.33331543 0.00517731 4.17297852 0.00422058 5.03808594 0.00323486 C6.81689529 0.00255306 8.59570712 0.00440737 10.37451172 0.00857544 C13.10699011 0.01392371 15.83930411 0.00863048 18.57177734 0.00222778 C20.29573604 0.00288856 22.01969464 0.00416973 23.74365234 0.00613403 C24.56655762 0.0041098 25.38946289 0.00208557 26.23730469 0 C32.0037018 0.02399599 32.0037018 0.02399599 33.11865234 1.13894653 C33.19178801 3.66944055 33.21112761 6.1719949 33.18115234 8.70144653 C33.17664063 9.4123645 33.17212891 10.12328247 33.16748047 10.85574341 C33.15566098 12.61684667 33.13772498 14.37790689 33.11865234 16.13894653 C32.78865234 16.13894653 32.45865234 16.13894653 32.11865234 16.13894653 C32.11865234 13.49894653 32.11865234 10.85894653 32.11865234 8.13894653 C28.15865234 8.13894653 24.19865234 8.13894653 20.11865234 8.13894653 C20.11865234 9.12894653 20.11865234 10.11894653 20.11865234 11.13894653 C19.45865234 11.13894653 18.79865234 11.13894653 18.11865234 11.13894653 C18.11865234 10.14894653 18.11865234 9.15894653 18.11865234 8.13894653 C17.45865234 8.13894653 16.79865234 8.13894653 16.11865234 8.13894653 C15.45865234 9.45894653 14.79865234 10.77894653 14.11865234 12.13894653 C7.36865234 11.38894653 7.36865234 11.38894653 5.11865234 9.13894653 C5.11865234 9.79894653 5.11865234 10.45894653 5.11865234 11.13894653 C4.45865234 11.13894653 3.79865234 11.13894653 3.11865234 11.13894653 C3.11865234 10.14894653 3.11865234 9.15894653 3.11865234 8.13894653 C-0.18134766 8.13894653 -3.48134766 8.13894653 -6.88134766 8.13894653 C-6.92376489 5.80599878 -6.92227703 3.47192086 -6.88134766 1.13894653 C-5.03858257 -0.70381855 -2.45171007 0.01020242 0 0 Z " fill="#4899BA" transform="translate(290.88134765625,247.86105346679688)"/>
<path d="M0 0 C12.21 0 24.42 0 37 0 C36.67 1.65 36.34 3.3 36 5 C24.45 5 12.9 5 1 5 C0.67 3.35 0.34 1.7 0 0 Z " fill="#FFF6EE" transform="translate(206,222)"/>
<path d="M0 0 C4.90688109 2.92076255 8.72073499 6.27878868 12 11 C12 11.66 12 12.32 12 13 C11.01 13 10.02 13 9 13 C9.495 15.475 9.495 15.475 10 18 C8.68 18 7.36 18 6 18 C5.34 17.01 4.68 16.02 4 15 C2.02 15.99 2.02 15.99 0 17 C0 13.04 0 9.08 0 5 C-10.23 5 -20.46 5 -31 5 C-31 4.67 -31 4.34 -31 4 C-20.77 4 -10.54 4 0 4 C0 2.68 0 1.36 0 0 Z " fill="#425562" transform="translate(316,260)"/>
<path d="M0 0 C10.23 0 20.46 0 31 0 C30.67 1.65 30.34 3.3 30 5 C20.43 5 10.86 5 1 5 C0.67 3.35 0.34 1.7 0 0 Z " fill="#FFF9F5" transform="translate(209,232)"/>
<path d="M0 0 C2.4375 1.625 2.4375 1.625 4 4 C4 7.51359068 3.6312066 9.27528132 1.3125 11.9375 C-1.83903422 13.38550221 -3.70949263 12.929926 -7 12 C-9 10 -9 10 -9.3125 6.5625 C-9 3 -9 3 -7.875 1.0625 C-5.06487736 -0.52990283 -3.17235276 -0.45319325 0 0 Z " fill="#FFF8F3" transform="translate(214,252)"/>
<path d="M0 0 C3.5625 0.3125 3.5625 0.3125 5.5 1.4375 C7.09240283 4.24762264 7.01569325 6.14014724 6.5625 9.3125 C4.9375 11.75 4.9375 11.75 2.5625 13.3125 C-0.95109068 13.3125 -2.71278132 12.9437066 -5.375 10.625 C-6.82300221 7.47346578 -6.367426 5.60300737 -5.4375 2.3125 C-3.4375 0.3125 -3.4375 0.3125 0 0 Z " fill="#FFF9F5" transform="translate(237.4375,251.6875)"/>
<path d="M0 0 C12.87 0 25.74 0 39 0 C37.68 0.33 36.36 0.66 35 1 C35 1.66 35 2.32 35 3 C33.35 3 31.7 3 30 3 C30 2.34 30 1.68 30 1 C20.1 1 10.2 1 0 1 C0 0.67 0 0.34 0 0 Z " fill="#FFA862" transform="translate(205,249)"/>
<path d="M0 0 C0.66 0 1.32 0 2 0 C2 1.65 2 3.3 2 5 C2.66 5 3.32 5 4 5 C4 3.35 4 1.7 4 0 C5.32 0 6.64 0 8 0 C8 0.66 8 1.32 8 2 C8.66 2 9.32 2 10 2 C10 1.34 10 0.68 10 0 C10.66 0.33 11.32 0.66 12 1 C11.34 2.65 10.68 4.3 10 6 C9.34 6 8.68 6 8 6 C8 5.01 8 4.02 8 3 C7.34 3 6.68 3 6 3 C5.34 4.32 4.68 5.64 4 7 C2.68 6.67 1.36 6.34 0 6 C0 4.02 0 2.04 0 0 Z " fill="#B5D6E4" transform="translate(301,253)"/>
<path d="M0 0 C1.65 0.33 3.3 0.66 5 1 C4.67 2.65 4.34 4.3 4 6 C2.35 5.67 0.7 5.34 -1 5 C-0.67 3.35 -0.34 1.7 0 0 Z " fill="#4F6173" transform="translate(274,230)"/>
<path d="M0 0 C2.0625 0.4375 2.0625 0.4375 4 1 C4.33 2.32 4.66 3.64 5 5 C3.35 5.33 1.7 5.66 0 6 C-0.38218767 4.34385343 -0.71395102 2.67542976 -1 1 C-0.67 0.67 -0.34 0.34 0 0 Z " fill="#485B6E" transform="translate(330,230)"/>
<path d="M0 0 C2.0625 0.4375 2.0625 0.4375 4 1 C3.67 2.65 3.34 4.3 3 6 C1.35 5.67 -0.3 5.34 -2 5 C-1.125 1.125 -1.125 1.125 0 0 Z " fill="#495B6E" transform="translate(286,230)"/>
<path d="M0 0 C2.0625 0.4375 2.0625 0.4375 4 1 C3.67 2.65 3.34 4.3 3 6 C1.35 5.67 -0.3 5.34 -2 5 C-1.125 1.125 -1.125 1.125 0 0 Z " fill="#485B6E" transform="translate(297,230)"/>
<path d="M0 0 C1.98 0.495 1.98 0.495 4 1 C3.67 2.65 3.34 4.3 3 6 C1.68 5.67 0.36 5.34 -1 5 C-0.67 3.35 -0.34 1.7 0 0 Z " fill="#3E5266" transform="translate(319,230)"/>
<path d="M0 0 C1.98 0.495 1.98 0.495 4 1 C3.67 2.65 3.34 4.3 3 6 C1.68 5.67 0.36 5.34 -1 5 C-0.67 3.35 -0.34 1.7 0 0 Z " fill="#3E5266" transform="translate(308,230)"/>
<path d="M0 0 C2.475 0.495 2.475 0.495 5 1 C5 2.65 5 4.3 5 6 C3.68 5.34 2.36 4.68 1 4 C0.67 4.66 0.34 5.32 0 6 C0 4.02 0 2.04 0 0 Z " fill="#CEE4ED" transform="translate(295,253)"/>
</svg>
